<svg width="29" height="36" viewBox="0 0 29 36" fill="none" xmlns="http://www.w3.org/2000/svg">
<path d="M23.7363 19.0027C23.7536 17.6672 24.1093 16.3578 24.7704 15.1963C25.4315 14.0348 26.3764 13.0589 27.5174 12.3594C26.7926 11.3271 25.8364 10.4776 24.7248 9.87835C23.6131 9.27907 22.3767 8.94652 21.1136 8.90711C18.4193 8.6251 15.8072 10.5148 14.4343 10.5148C13.0347 10.5148 10.9208 8.93511 8.64446 8.98182C7.17206 9.02925 5.73709 9.45622 4.47936 10.2211C3.22163 10.986 2.18405 12.0627 1.46769 13.3464C-1.63539 18.7039 0.67923 26.5776 3.65173 30.9081C5.13893 33.0287 6.87705 35.3974 9.15133 35.3134C11.3769 35.2214 12.2081 33.8982 14.8945 33.8982C17.5559 33.8982 18.3358 35.3134 20.6562 35.26C23.0443 35.2214 24.5489 33.13 25.9839 30.9894C27.0525 29.4784 27.8747 27.8084 28.4202 26.0414C27.0328 25.4562 25.8488 24.4767 25.0159 23.225C24.1829 21.9734 23.7379 20.5049 23.7363 19.0027Z" fill="white"/>
<path d="M19.3536 6.05911C20.6557 4.50038 21.2972 2.49689 21.1418 0.474121C19.1525 0.682474 17.315 1.63057 15.9953 3.1295C15.3501 3.86176 14.8559 4.71366 14.541 5.63649C14.2261 6.55932 14.0968 7.53499 14.1602 8.50772C15.1552 8.51794 16.1396 8.30288 17.0392 7.87874C17.9388 7.4546 18.7301 6.83244 19.3536 6.05911Z" fill="white"/>
</svg>
