<svg width="46" height="45" viewBox="0 0 46 45" fill="none" xmlns="http://www.w3.org/2000/svg">
<g clip-path="url(#clip0_549_22034)">
<path d="M17.4022 6.6332C21.2723 5.13726 26.0564 4.52185 27.9217 8.47837C28.1121 8.88228 28.8889 9.11746 29.397 9.03412C30.7211 8.81625 32.0386 8.50785 33.3996 8.66066C34.2806 8.75968 35.0669 9.06605 35.7316 9.65532C36.9669 10.7513 37.9946 12.0192 38.8321 13.4428C39.6108 14.7664 40.2769 16.1411 40.8658 17.563C41.4446 18.9603 41.8205 20.4018 42.118 21.8738C42.3728 23.1335 42.5163 24.3964 42.4754 25.6871C42.3603 29.3474 39.5954 31.8965 36.723 33.7775C31.4912 37.2025 25.064 39.5783 18.786 39.8769C17.0723 39.9586 15.3749 39.8769 13.703 39.39C10.1089 38.3417 7.85515 34.1081 6.59655 30.8386C5.71629 28.5513 5.21709 26.116 5.14288 23.6661C5.10516 22.4291 5.10443 21.0799 5.37707 19.8668C5.63247 18.7355 6.43716 18.0342 7.32361 17.3429C8.15669 16.6939 9.10838 16.2507 10.0257 15.7488C10.5035 15.488 10.7108 15.1782 10.619 14.667C10.1059 11.7917 11.3805 9.85826 13.7804 8.40367C14.7552 7.81286 16.0206 7.16615 17.4022 6.6332ZM18.7724 10.0683C18.2586 10.3102 17.7092 10.4523 17.1912 10.703C16.1724 11.1946 15.2545 11.8115 14.3938 12.5339C14.3026 12.6105 14.2253 12.6576 14.2206 12.7852C14.205 13.1733 14.1168 13.5702 14.172 13.9478C14.3462 15.1459 14.1797 16.2662 13.5621 17.3139C13.0771 18.1371 12.3931 18.7929 11.5605 19.1998C10.7603 19.5914 9.14997 20.179 8.8002 21.0799C8.68545 21.3751 8.67321 21.6972 8.66887 22.0141C8.63081 25.0712 9.36055 28.1052 10.6477 30.872C11.0753 31.7903 11.506 32.7001 12.079 33.536C12.6926 34.4308 13.3536 35.2805 14.394 35.7236C15.6045 36.2393 16.8852 36.2973 18.1749 36.2604C23.6159 36.1062 29.2347 34.1506 33.8559 31.3198C35.2861 30.4431 36.6389 29.4866 37.7384 28.1998C38.2602 27.5896 38.7053 26.9457 38.8265 26.1373C39.4034 22.2916 37.4796 18.109 35.5871 14.8785C35.1058 14.0563 34.0539 12.3229 33.0144 12.1325C32.847 12.1017 32.6754 12.114 32.506 12.1292C30.997 12.2638 29.4451 12.8575 27.9415 12.4622C26.1387 11.9889 25.3636 10.6787 24.2052 9.33896C24.0884 9.20336 23.9707 9.1133 23.7877 9.1211C22.0714 9.19523 20.3787 9.39414 18.7743 10.0701L18.7724 10.0683Z" fill="#387A8A"/>
<path d="M26.1138 30.8661C21.6709 32.3047 17.4981 30.0412 15.9207 26.57C13.5714 21.3999 16.75 16.7341 20.3283 15.3557C24.9693 13.5677 29.2886 16.098 30.8138 19.4094C33.2222 24.6354 30.1141 29.4545 26.1127 30.8665L26.1138 30.8661ZM21.8399 18.7623C19.5542 19.6873 18.0865 22.2482 19.0756 24.6347C20.0524 26.9939 22.8993 28.2193 25.2632 27.2225C27.3838 26.3283 28.4804 23.9058 27.8009 21.7463C26.9172 18.942 24.1403 17.8309 21.841 18.762L21.8399 18.7623Z" fill="#D3C1BD"/>
</g>
<defs>
<clipPath id="clip0_549_22034">
<rect width="36.7661" height="33.1616" fill="white" transform="translate(0.148926 12.7759) rotate(-19.6231)"/>
</clipPath>
</defs>
</svg>
