<svg width="65" height="64" viewBox="0 0 65 64" fill="none" xmlns="http://www.w3.org/2000/svg">
<path d="M56.8352 57.5999H7.84831C6.98952 57.1979 6.73041 56.5167 6.73442 55.5872C6.76113 48.789 6.74778 41.9908 6.74911 35.1926C6.74911 34.1242 7.35414 33.5138 8.41593 33.5111C10.3151 33.5071 12.2144 33.5058 14.1136 33.5111C15.154 33.5138 15.7497 34.1148 15.7617 35.1566C15.7657 35.6 15.7617 36.0434 15.7617 36.4828H18.7681C18.7788 36.3306 18.7922 36.2144 18.7922 36.0995C18.7922 30.9508 18.7962 25.8021 18.7842 20.6547C18.7842 20.4023 18.6947 20.1311 18.5811 19.9001C17.7517 18.2119 16.897 16.5371 16.0716 14.8475C15.922 14.5417 15.7938 14.1878 15.7884 13.8539C15.7617 11.8879 15.7617 9.92186 15.7817 7.95587C15.7924 7.01027 16.4295 6.41059 17.3791 6.40658C19.3277 6.39857 21.2777 6.39723 23.2263 6.40658C24.1479 6.41059 24.7556 7.00493 24.8037 7.92782C24.8224 8.29377 24.809 8.66106 24.809 9.02702C24.809 10.1382 24.809 11.2508 24.809 12.3807H27.8435C27.8435 10.9102 27.8395 9.47845 27.8448 8.04669C27.8488 7.01828 28.4645 6.40658 29.4996 6.40391C31.3988 6.39857 33.298 6.39857 35.1973 6.40391C36.2697 6.40658 36.8534 6.99691 36.8574 8.08275C36.8627 9.33287 36.8587 10.5816 36.8587 11.8318C36.8587 12.0107 36.8587 12.1884 36.8587 12.382H39.9186C39.9186 10.9302 39.9159 9.51718 39.9186 8.10412C39.9213 6.99157 40.5022 6.40658 41.6081 6.40391C43.4739 6.3999 45.3398 6.40124 47.2056 6.40391C48.3408 6.40524 48.9298 6.99424 48.9312 8.12683C48.9338 9.97662 48.9472 11.8264 48.9192 13.6749C48.9138 14.0582 48.8136 14.4722 48.6454 14.8168C47.8133 16.521 46.9371 18.2039 46.097 19.9041C45.9702 20.1605 45.8874 20.4704 45.8874 20.7549C45.8753 25.8194 45.878 30.8853 45.878 35.9499V36.4828H48.9165C48.9165 36.0354 48.9138 35.6214 48.9165 35.2087C48.9232 34.1015 49.5082 33.5111 50.6114 33.5098C52.377 33.5071 54.144 33.5432 55.9083 33.4951C56.8366 33.4697 57.5217 33.7462 57.9304 34.601V56.4994C57.69 56.9922 57.3227 57.3582 56.8312 57.5999H56.8352ZM42.8529 21.4894H21.8253V24.4838C22.1205 24.4838 22.3836 24.4838 22.6454 24.4838C24.0905 24.4838 24.7997 24.9713 24.805 25.969C24.8104 26.9707 24.0865 27.4823 22.6614 27.4823C22.3849 27.4823 22.1071 27.4823 21.8507 27.4823V38.2819C22.835 38.2819 23.7646 38.2605 24.6928 38.2885C25.4514 38.3113 26.0297 38.9096 26.0898 39.6642C26.1473 40.3814 25.6651 41.0479 24.9426 41.2082C24.6861 41.2656 24.415 41.2696 24.1492 41.2723C23.3906 41.2803 22.6307 41.2749 21.8373 41.2749V54.5628H24.829C24.829 52.9787 24.8063 51.4308 24.8331 49.8842C24.8958 46.222 27.6859 43.1007 31.3053 42.6172C34.9809 42.1257 38.5082 44.3668 39.5219 47.8995C39.7436 48.6715 39.8117 49.5035 39.8411 50.3116C39.8905 51.722 39.8545 53.135 39.8545 54.5734H42.8329V45.5435C42.3707 45.5435 41.9567 45.5475 41.5427 45.5435C40.5557 45.5328 39.8852 44.9358 39.8732 44.065C39.8625 43.2022 40.5356 42.5745 41.512 42.5491C41.9407 42.5384 42.3694 42.5478 42.8382 42.5478V33.5031C42.3507 33.5031 41.9033 33.5085 41.4559 33.5031C40.5436 33.4884 39.8598 32.8286 39.8732 31.9845C39.8865 31.1538 40.5557 30.5207 41.4438 30.506C41.906 30.498 42.3694 30.506 42.8516 30.506V27.4876C42.4068 27.4876 41.9941 27.4903 41.5814 27.4876C40.5744 27.4809 39.8772 26.8679 39.8732 25.9877C39.8692 25.1049 40.557 24.4972 41.5721 24.4892C41.9968 24.4865 42.4202 24.4892 42.8542 24.4892V21.4948L42.8529 21.4894ZM45.9207 39.5186V54.5601H54.908V36.5403H51.9189C51.9189 37.0504 51.9349 37.5313 51.9149 38.0107C51.8775 38.9016 51.2698 39.4919 50.379 39.516C49.9302 39.528 49.4801 39.52 49.03 39.52C48.0029 39.52 46.9745 39.52 45.9207 39.52V39.5186ZM9.78225 54.5721H18.7601V39.5186C18.5491 39.5186 18.3701 39.5186 18.1911 39.5186C16.925 39.5186 15.6589 39.5253 14.3927 39.516C13.383 39.5093 12.7807 38.9043 12.7633 37.8972C12.7553 37.4525 12.7633 37.0064 12.7633 36.5349H9.78225V54.5721ZM19.7271 15.4592C20.1758 16.3581 20.6166 17.1942 21.0119 18.053C21.1628 18.3815 21.3578 18.4683 21.6998 18.467C24.7796 18.455 27.8595 18.4603 30.9394 18.4603C34.9515 18.4603 38.9636 18.4617 42.9758 18.455C43.1601 18.455 43.4512 18.4309 43.5113 18.3201C44.0175 17.3932 44.4823 16.4436 44.9805 15.4592H19.7271ZM30.8192 45.8467C30.6963 45.8827 30.5975 45.8988 30.512 45.9402C28.8852 46.7362 27.9343 48.017 27.8435 49.8441C27.7847 51.0395 27.8275 52.2388 27.8248 53.4369C27.8248 53.8135 27.8248 54.1888 27.8248 54.5708H30.8192V45.8467ZM33.867 45.8106V54.5748H36.82C36.82 52.8398 36.9429 51.1209 36.7866 49.4261C36.6264 47.6911 35.5459 46.5131 33.867 45.8106ZM18.8082 9.42235V12.39H21.7812V9.42235H18.8082ZM33.839 12.3927V9.44372H30.8699V12.3927H33.839ZM45.9007 12.3994V9.43971H42.9611V12.3994H45.9007Z" fill="#9596CC"/>
<path d="M36.8614 31.7935C36.8614 32.8273 36.8681 33.8597 36.8601 34.8935C36.8521 35.9125 36.2591 36.5055 35.2413 36.5082C33.3261 36.5135 31.4095 36.5135 29.4943 36.5082C28.4579 36.5055 27.8515 35.8978 27.8488 34.8601C27.8448 32.8941 27.8301 30.9267 27.8528 28.9607C27.8795 26.6422 29.6826 24.6762 31.901 24.5039C34.3318 24.3156 36.4514 25.8742 36.7799 28.2502C36.9402 29.4108 36.808 30.6102 36.808 31.7922C36.8253 31.7922 36.844 31.7922 36.8614 31.7922V31.7935ZM30.8472 33.4791H33.859C33.859 31.9525 33.8724 30.4566 33.8537 28.9607C33.843 28.1247 33.2046 27.505 32.3979 27.4889C31.5698 27.4716 30.8699 28.0899 30.8552 28.9314C30.8285 30.4299 30.8472 31.9284 30.8472 33.4791Z" fill="#9596CC"/>
<path d="M48.8925 47.0394C48.8925 46.0898 48.8844 45.1402 48.8951 44.1919C48.9072 43.2102 49.5229 42.5518 50.4003 42.5585C51.2605 42.5651 51.8788 43.2102 51.8855 44.1625C51.8989 46.0951 51.8989 48.0264 51.8855 49.959C51.8788 50.9059 51.2525 51.567 50.4044 51.5777C49.5429 51.5884 48.9072 50.9099 48.8951 49.9363C48.8831 48.9706 48.8925 48.0037 48.8925 47.038V47.0394Z" fill="#9596CC"/>
<path d="M15.7617 47.0554C15.7617 48.021 15.7671 48.988 15.7604 49.9536C15.7537 50.8966 15.1433 51.563 14.2899 51.579C13.4351 51.5951 12.7713 50.8966 12.766 49.9443C12.7566 48.029 12.758 46.1125 12.766 44.1972C12.77 43.2262 13.3977 42.5571 14.2752 42.5598C15.1527 42.5625 15.755 43.2249 15.7617 44.2079C15.767 45.1575 15.7617 46.1071 15.7617 47.0567V47.0554Z" fill="#9596CC"/>
</svg>
