<svg width="48" height="48" viewBox="0 0 48 48" fill="none" xmlns="http://www.w3.org/2000/svg">
<path d="M42.3759 43.1998H5.63574C4.99165 42.8983 4.79732 42.3874 4.80033 41.6903C4.82036 36.5916 4.81034 31.493 4.81135 26.3944C4.81135 25.593 5.26511 25.1352 6.06146 25.1332C7.48587 25.1302 8.91028 25.1292 10.3347 25.1332C11.115 25.1352 11.5618 25.586 11.5708 26.3673C11.5738 26.6999 11.5708 27.0324 11.5708 27.362H13.8256C13.8336 27.2478 13.8436 27.1607 13.8436 27.0745C13.8436 23.213 13.8466 19.3514 13.8376 15.4909C13.8376 15.3016 13.7705 15.0982 13.6854 14.9249C13.0633 13.6588 12.4222 12.4027 11.8032 11.1355C11.691 10.9061 11.5948 10.6407 11.5908 10.3903C11.5708 8.91577 11.5708 7.44128 11.5858 5.96678C11.5938 5.25758 12.0716 4.80782 12.7838 4.80481C14.2453 4.7988 15.7078 4.7978 17.1693 4.80481C17.8604 4.80782 18.3162 5.25357 18.3523 5.94574C18.3663 6.22021 18.3563 6.49568 18.3563 6.77014C18.3563 7.60355 18.3563 8.43796 18.3563 9.2854H20.6321C20.6321 8.18253 20.6291 7.10871 20.6331 6.0349C20.6361 5.26359 21.0979 4.80481 21.8742 4.80281C23.2986 4.7988 24.7231 4.7988 26.1475 4.80281C26.9518 4.80481 27.3896 5.24756 27.3926 6.06194C27.3966 6.99953 27.3936 7.93611 27.3936 8.8737C27.3936 9.00793 27.3936 9.14115 27.3936 9.2864H29.6885C29.6885 8.19756 29.6865 7.13776 29.6885 6.07797C29.6905 5.24356 30.1262 4.80481 30.9556 4.80281C32.355 4.7998 33.7543 4.80081 35.1537 4.80281C36.0051 4.80381 36.4469 5.24556 36.4479 6.095C36.4499 7.48235 36.4599 8.86969 36.4389 10.256C36.4349 10.5435 36.3597 10.8541 36.2335 11.1125C35.6095 12.3907 34.9524 13.6528 34.3223 14.9279C34.2271 15.1203 34.165 15.3527 34.165 15.566C34.156 19.3645 34.158 23.1639 34.158 26.9623V27.362H36.4369C36.4369 27.0264 36.4349 26.7159 36.4369 26.4064C36.4419 25.576 36.8806 25.1332 37.708 25.1322C39.0323 25.1302 40.3575 25.1573 41.6808 25.1212C42.3769 25.1022 42.8908 25.3095 43.1973 25.9506V42.3744C43.017 42.744 42.7416 43.0185 42.3729 43.1998H42.3759ZM31.8892 16.117H16.1185V18.3628C16.3399 18.3628 16.5372 18.3628 16.7335 18.3628C17.8174 18.3628 18.3493 18.7284 18.3533 19.4766C18.3573 20.2279 17.8144 20.6116 16.7455 20.6116C16.5382 20.6116 16.3298 20.6116 16.1375 20.6116V28.7113C16.8758 28.7113 17.5729 28.6953 18.2691 28.7163C18.8381 28.7333 19.2718 29.1821 19.3169 29.748C19.36 30.2859 18.9984 30.7858 18.4564 30.906C18.2641 30.9491 18.0608 30.9521 17.8614 30.9541C17.2925 30.9601 16.7225 30.9561 16.1275 30.9561V40.922H18.3713C18.3713 39.7339 18.3543 38.573 18.3743 37.413C18.4214 34.6664 20.5139 32.3254 23.2285 31.9628C25.9852 31.5942 28.6307 33.275 29.391 35.9245C29.5572 36.5035 29.6083 37.1275 29.6304 37.7336C29.6674 38.7913 29.6404 39.8511 29.6404 40.93H31.8742V34.1575C31.5276 34.1575 31.217 34.1605 30.9065 34.1575C30.1663 34.1495 29.6634 33.7017 29.6544 33.0486C29.6464 32.4015 30.1512 31.9307 30.8835 31.9117C31.205 31.9037 31.5266 31.9107 31.8782 31.9107V25.1272C31.5125 25.1272 31.177 25.1312 30.8414 25.1272C30.1572 25.1162 29.6444 24.6214 29.6544 23.9883C29.6644 23.3652 30.1663 22.8904 30.8324 22.8794C31.179 22.8734 31.5266 22.8794 31.8882 22.8794V20.6156C31.5546 20.6156 31.2451 20.6176 30.9356 20.6156C30.1803 20.6106 29.6574 20.1508 29.6544 19.4907C29.6514 18.8286 30.1673 18.3728 30.9286 18.3668C31.2471 18.3648 31.5646 18.3668 31.8902 18.3668V16.121L31.8892 16.117ZM34.1901 29.6389V40.9199H40.9305V27.4051H38.6887C38.6887 27.7877 38.7007 28.1483 38.6857 28.5079C38.6576 29.1761 38.2019 29.6188 37.5337 29.6368C37.1972 29.6459 36.8596 29.6399 36.522 29.6399C35.7517 29.6399 34.9804 29.6399 34.1901 29.6399V29.6389ZM7.0862 40.929H13.8196V29.6389C13.6613 29.6389 13.5271 29.6389 13.3929 29.6389C12.4433 29.6389 11.4937 29.6439 10.5441 29.6368C9.78677 29.6318 9.335 29.1781 9.32198 28.4228C9.31597 28.0892 9.32198 27.7547 9.32198 27.4011H7.0862V40.929ZM14.5448 11.5943C14.8814 12.2684 15.212 12.8955 15.5085 13.5396C15.6216 13.786 15.7679 13.8511 16.0243 13.8501C18.3342 13.8411 20.6441 13.8451 22.9541 13.8451C25.9632 13.8451 28.9722 13.8461 31.9813 13.8411C32.1196 13.8411 32.3379 13.8231 32.383 13.7399C32.7627 13.0448 33.1112 12.3326 33.4849 11.5943H14.5448ZM22.8639 34.3849C22.7717 34.4119 22.6976 34.424 22.6335 34.455C21.4134 35.052 20.7002 36.0126 20.6321 37.383C20.5881 38.2795 20.6201 39.179 20.6181 40.0775C20.6181 40.36 20.6181 40.6415 20.6181 40.928H22.8639V34.3849ZM25.1498 34.3578V40.931H27.3645C27.3645 39.6298 27.4567 38.3406 27.3395 37.0694C27.2193 35.7682 26.4089 34.8847 25.1498 34.3578ZM13.8557 7.06664V9.29241H16.0854V7.06664H13.8557ZM25.1287 9.29441V7.08267H22.902V9.29441H25.1287ZM34.1751 9.29942V7.07966H31.9703V9.29942H34.1751Z" fill="white"/>
<path d="M27.3956 23.845C27.3956 24.6203 27.4006 25.3947 27.3946 26.17C27.3886 26.9343 26.9438 27.379 26.1805 27.381C24.7441 27.385 23.3067 27.385 21.8702 27.381C21.0929 27.379 20.6381 26.9232 20.6361 26.1449C20.6331 24.6704 20.6221 23.1949 20.6391 21.7204C20.6592 19.9815 22.0115 18.507 23.6753 18.3778C25.4984 18.2365 27.0881 19.4055 27.3345 21.1875C27.4547 22.058 27.3555 22.9575 27.3555 23.844C27.3685 23.844 27.3826 23.844 27.3956 23.844V23.845ZM22.8849 25.1092H25.1438C25.1438 23.9642 25.1538 22.8423 25.1398 21.7204C25.1317 21.0934 24.6529 20.6286 24.0479 20.6166C23.4269 20.6035 22.902 21.0673 22.8909 21.6984C22.8709 22.8223 22.8849 23.9462 22.8849 25.1092Z" fill="white"/>
<path d="M36.4189 35.2794C36.4189 34.5672 36.4128 33.855 36.4209 33.1438C36.4299 32.4075 36.8917 31.9137 37.5498 31.9187C38.1949 31.9237 38.6586 32.4075 38.6637 33.1218C38.6737 34.5712 38.6737 36.0197 38.6637 37.4691C38.6586 38.1793 38.1889 38.6752 37.5528 38.6832C36.9067 38.6912 36.4299 38.1823 36.4209 37.4521C36.4118 36.7279 36.4189 36.0026 36.4189 35.2784V35.2794Z" fill="white"/>
<path d="M11.5708 35.2914C11.5708 36.0156 11.5748 36.7409 11.5698 37.4651C11.5648 38.1723 11.107 38.6721 10.4669 38.6842C9.82584 38.6962 9.328 38.1723 9.32399 37.4581C9.31698 36.0217 9.31798 34.5842 9.32399 33.1478C9.32699 32.4196 9.79779 31.9177 10.4559 31.9197C11.114 31.9217 11.5658 32.4186 11.5708 33.1558C11.5748 33.868 11.5708 34.5802 11.5708 35.2924V35.2914Z" fill="white"/>
</svg>
