<svg width="20" height="21" viewBox="0 0 20 21" fill="none" xmlns="http://www.w3.org/2000/svg">
<path d="M0.0564955 10.7457C0.124642 10.2446 0.277581 9.77098 0.630278 9.33996C1.13227 8.72562 1.89333 8.36106 2.6856 8.33873C2.75634 8.33665 2.82709 8.33873 2.90928 8.33873C3.13817 6.16854 4.10731 4.4247 5.87027 3.14876C7.09847 2.25971 8.48637 1.82557 10.0054 1.83335C11.8427 1.8427 13.4475 2.46899 14.7959 3.71065C16.1437 4.9518 16.8809 6.50609 17.0577 8.31225C17.3262 8.34496 17.58 8.35846 17.8256 8.40936C19.8585 8.83104 20.1379 10.9898 19.9516 12.7201C19.8023 14.1103 18.9388 15.3276 17.4422 15.4081C17.1248 15.4252 16.8065 15.419 16.4886 15.4174C16.0688 15.4148 15.8311 15.1728 15.8306 14.748C15.8295 12.8178 15.829 10.8875 15.8306 8.95723C15.8316 7.57275 15.4295 6.31603 14.5368 5.25819C12.9424 3.36895 10.8928 2.65698 8.50406 3.2843C6.11581 3.91163 4.69774 5.5407 4.22539 7.96535C4.15933 8.3055 4.14788 8.6607 4.14632 9.00916C4.13904 10.9005 4.1432 12.7918 4.14268 14.6836C4.14268 15.165 3.9913 15.3712 3.5096 15.4231C2.0343 15.582 0.495546 14.9443 0.121001 13.3947C0.000313648 12.8925 -0.00280756 12.3717 0.000833856 11.856C0.00343487 11.4754 0.00863689 11.1035 0.0570157 10.7457H0.0564955Z" fill="#387A8A"/>
<path d="M9.9871 20.5815C9.72752 20.5815 9.46845 20.5861 9.20887 20.5804C8.51388 20.5654 7.97443 20.0222 7.97339 19.3408C7.97235 18.6725 8.50504 18.1158 9.18807 18.0966C9.71919 18.0815 10.2519 18.082 10.783 18.0966C11.4655 18.1147 11.9987 18.6704 11.9992 19.3393C11.9992 20.0196 11.4593 20.5654 10.7648 20.5804C10.5057 20.5861 10.2462 20.5815 9.98658 20.5815H9.9871Z" fill="#387A8A"/>
<path d="M7.28465 19.3413C7.28465 19.5273 7.13847 19.682 6.95224 19.6882C4.66439 19.7646 2.89414 17.9963 2.66525 16.1486H3.35296C3.5548 17.0507 4.01726 17.7845 4.76791 18.3282C5.4244 18.8039 6.15945 18.996 6.93975 18.9944C7.13067 18.9944 7.28413 19.1508 7.28413 19.3413H7.28465Z" fill="#387A8A"/>
<circle cx="16" cy="4.5" r="4" fill="#3ED23B"/>
</svg>
