<svg width="119" height="56" viewBox="0 0 119 56" fill="none" xmlns="http://www.w3.org/2000/svg">
<g clip-path="url(#clip0_549_31443)">
<path d="M30.9391 2.8894C30.9391 2.8894 30.3991 4.68113 29.8605 4.68113H19.8774C19.8774 4.68113 20.4174 2.8894 20.8407 2.8894H30.9391Z" fill="#6A7277"/>
<path d="M39.4824 5.2006C40.1461 5.2006 40.8619 4.96319 41.3485 4.48C41.3485 4.1197 41.1094 3.28598 40.8085 2.98713C40.0828 2.26653 39.128 1.85456 37.9791 1.79312C37.8553 1.96908 37.6781 2.51372 37.6781 3.04858C37.6781 3.58344 37.74 4.18115 37.9791 4.48C38.3419 5.01626 38.8805 5.2006 39.4824 5.2006ZM42.3033 2.98713C42.0643 4.48 41.101 6.27312 39.5977 6.80798C39.3586 6.86943 39.173 6.86943 38.9958 6.86943C37.6697 6.86943 36.7148 6.09576 36.7148 4.48C36.7148 2.98713 37.3786 0.720599 38.581 0.122893C38.581 0.122893 38.8819 0 39.0591 0C40.5624 0 42.3047 1.25546 42.3047 2.98713H42.3033Z" fill="#6A7277"/>
<path d="M91.6281 2.8894C91.6281 2.8894 91.0881 4.68113 90.5495 4.68113H65.7627C65.7627 4.68113 66.3027 2.8894 66.726 2.8894H91.6365H91.6281Z" fill="#6A7277"/>
<path d="M8.8144 27.2752C7.48829 27.2138 6.53344 26.2041 6.53344 25.0087C6.59532 23.6387 7.61204 22.6807 8.8144 22.6807C10.1939 22.7421 11.1572 23.7518 11.1572 25.1316C11.0954 26.3256 10.0786 27.2836 8.8144 27.2836V27.2752ZM43.0175 12.1049C42.5394 12.1049 39.2952 15.8643 39.2952 15.9258L40.7985 26.9763H30.2754L30.0363 24.2881C29.2587 18.4381 28.1702 14.3184 27.993 13.9581C27.3911 13.9581 23.7841 18.0778 23.7841 18.1392C24.5617 21.4252 25.2874 23.9278 25.3492 26.9763H16.6304C16.1523 21.3638 15.3043 12.4652 15.189 11.2084C15.189 10.9095 15.0652 10.7866 14.8881 10.7866C13.9248 10.7866 11.1038 14.4846 11.1038 14.4846L11.2275 16.6366C10.2024 17.1729 8.94659 17.7077 7.50517 18.068C3.83482 18.9646 1.25292 20.6949 0.351506 24.5157C0.227754 24.9905 0.174316 25.4123 0.174316 25.8857C0.174316 29.0474 1.91668 31.3851 5.28608 32.0345C6.36469 32.2719 7.56704 32.3948 8.65549 32.3948C9.68066 32.3948 10.6369 32.2719 11.2993 32.0345H41.3553C45.3787 32.0345 45.6796 30.6031 45.6796 28.9859C45.6796 27.3688 44.9019 21.6417 44.9019 21.6417L46.4052 18.8305C43.8233 15.37 43.2749 12.4973 43.0358 12.084L43.0175 12.1021V12.1049Z" fill="#377A8A"/>
<path d="M87.1447 28.7164C85.7651 28.7164 84.74 27.4595 84.74 26.327C84.74 24.8341 86.0042 23.8146 87.1447 23.8146C88.648 23.8146 89.6731 25.0715 89.6731 26.4415C89.6113 27.6983 88.4708 28.708 87.1447 28.708V28.7164ZM108.305 8.7058C106.2 4.9464 105.599 2.85583 105.422 2.43408C104.944 2.43408 101.275 5.78151 101.275 5.84296L101.815 26.9861H96.5273C96.2882 25.7306 95.8635 24.4207 95.263 23.2881C93.7597 20.5999 90.6294 18.0345 87.5075 18.0345C80.8306 18.2719 78.2487 26.9945 78.2487 26.9945H74.7021C73.4378 25.4402 71.7573 22.6904 71.0317 20.7228C70.1303 18.3948 67.2995 16.726 65.8581 16.726H53.8936C53.4154 16.726 52.9922 16.8488 52.7531 17.1477C52.5759 17.508 51.6745 18.878 51.0726 20.1348C50.8954 20.5566 50.8335 20.9085 50.8335 21.206C50.8335 21.6808 51.0107 21.9265 51.1345 21.9265H63.8766C66.2195 21.9265 67.6609 27.0043 67.6609 27.0043H49.0828C49.0828 27.0043 47.8185 29.6311 47.5795 30.8251C47.5176 31.0625 47.5176 31.2468 47.5176 31.4228C47.5176 32.0205 47.8185 32.082 47.9957 32.082H78.1755C78.9012 32.082 82.3226 33.8737 85.7539 33.9351H88.0967C90.3777 33.9351 93.7471 33.1615 95.1266 32.082H104.924C106.304 32.082 106.304 30.8265 106.304 29.754V29.5166C106.304 29.3406 106.481 11.2977 106.481 11.2977L108.285 8.73234L108.303 8.7058H108.305Z" fill="#377A8A"/>
<path d="M117.201 31.4562V11.3926L119.005 8.82722C116.9 5.06782 116.539 2.97724 116.361 2.61694C115.698 2.61694 112.515 5.54263 112.214 5.96437C112.214 5.96437 112.276 8.3538 113.054 33.9769L117.201 31.4646V31.4562Z" fill="#377A8A"/>
<path d="M4.1289 3.56666C5.45501 4.28726 7.19737 6.01753 7.19737 5.95609C7.19737 6.07898 7.13549 6.25494 6.9583 6.4309L4.07546 9.89145C3.95171 10.0143 3.89827 10.0674 3.77452 10.0674C3.65077 10.0674 3.53546 10.006 3.34983 9.83C2.44842 9.1094 0.706055 7.67798 0.706055 7.61654C0.706055 7.49364 0.76793 7.37913 0.945119 7.14172C1.30794 6.71998 3.71265 3.79429 3.71265 3.79429C3.71265 3.79429 3.88984 3.55688 4.13734 3.55688L4.1289 3.56526V3.56666Z" fill="#6A7277"/>
<path d="M11.3441 3.56658C12.4846 4.34025 14.3507 5.89456 14.3507 6.01745C14.3507 5.95601 11.7069 9.53945 11.105 10.0143C11.105 10.0143 10.6803 9.95282 10.565 9.8383C9.36267 9.06464 7.85938 7.57177 7.85938 7.57177C7.85938 7.44888 7.92125 7.33436 8.09844 7.15002C8.52313 6.72828 10.9278 3.80259 10.9278 3.80259C10.9278 3.80259 11.105 3.56519 11.3525 3.56519H11.3441V3.56658Z" fill="#6A7277"/>
<path d="M21.9995 8.26588C23.3256 8.98648 25.068 10.7168 25.068 10.6553C25.068 10.7782 25.0061 10.9542 24.8289 11.1301L21.9461 14.5907C21.8223 14.7136 21.7689 14.7666 21.6451 14.7666C21.5214 14.7666 21.4061 14.7052 21.2204 14.5292C20.319 13.8086 18.5767 12.3772 18.5767 12.3158C18.5767 12.1929 18.6385 12.0783 18.8157 11.8409C19.1785 11.4192 21.5833 8.49351 21.5833 8.49351C21.5833 8.49351 21.7604 8.2561 22.0079 8.2561L21.9995 8.26448V8.26588Z" fill="#6A7277"/>
<path d="M33.5843 41.9722C33.4605 42.0951 33.4071 42.1481 33.2833 42.1481C33.1596 42.1481 33.0442 42.0867 32.8586 41.9107C32.4958 41.6733 30.2767 39.8816 30.2767 39.8816C30.2767 39.8816 30.2148 39.8202 30.2148 39.7056C30.2148 39.5911 30.2148 39.4068 30.392 39.2308C30.8167 38.8091 33.2214 35.8834 33.2214 35.8834C33.2214 35.8834 33.3986 35.646 33.7614 35.646C34.0005 35.822 36.5824 37.798 36.5824 37.798C36.5824 37.798 36.7062 37.8595 36.7062 38.0354C36.7062 38.1583 36.6443 38.3343 36.4671 38.5102L33.5843 41.9708V41.9722Z" fill="#6A7277"/>
<path d="M40.3133 41.9722C40.1895 42.0951 40.1361 42.1481 40.0123 42.1481C39.8886 42.1481 39.7733 42.0867 39.5876 41.9107C39.2248 41.6733 37.0057 39.8816 37.0057 39.8816C37.0057 39.8816 36.9438 39.8202 36.9438 39.7056C36.9438 39.5911 36.9438 39.4068 37.121 39.2308C37.5457 38.8091 39.9504 35.8834 39.9504 35.8834C39.9504 35.8834 40.1276 35.646 40.4904 35.646C40.7295 35.822 43.3114 37.798 43.3114 37.798C43.3114 37.798 43.4352 37.8595 43.4352 38.0354C43.4352 38.1583 43.3733 38.3343 43.1961 38.5102L40.3133 41.9708V41.9722Z" fill="#6A7277"/>
<path d="M118.916 53.5491H106.475V55.9999H118.916V53.5491Z" fill="#A19FA4"/>
<path d="M12.617 53.5491H0.175781V55.9999H12.617V53.5491Z" fill="#A19FA4"/>
<path d="M24.2722 52.2225L23.7771 50.5355C23.6351 50.0705 23.4945 49.4728 23.3792 49.0078H23.3525C23.2371 49.4728 23.1134 50.0789 22.9896 50.5453L22.5115 52.2323H24.2806L24.2722 52.2239V52.2225ZM22.2387 53.5576L21.6734 55.5951H19.7988L22.2401 47.6448H24.6097L27.103 55.5951H25.1483L24.5295 53.5576H22.2303H22.2387Z" fill="#A19FA4"/>
<path d="M29.834 47.6545H31.6467V54.1022H34.8304V55.6132H29.834V47.6643V47.6545Z" fill="#A19FA4"/>
<path d="M44.3267 52.566C44.2915 51.5996 44.2564 50.4573 44.2564 49.2898H44.2212C43.9653 50.3092 43.6292 51.4418 43.3283 52.3733L42.3467 55.4735H40.9404L40.0826 52.3984C39.8267 51.4586 39.5609 50.3344 39.357 49.2884H39.3303C39.2951 50.3693 39.2417 51.5982 39.1981 52.5911L39.0476 55.6132H37.377L37.8902 47.6628H40.3048L41.0825 50.3246C41.3384 51.2379 41.5859 52.2392 41.7631 53.1707H41.7982C42.019 52.249 42.2848 51.203 42.559 50.3162L43.4084 47.6726H45.778L46.2111 55.6229H44.4519L44.3281 52.5841V52.566H44.3267Z" fill="#A19FA4"/>
<path d="M53.1174 52.2225L52.6224 50.5355C52.4803 50.0705 52.3397 49.4728 52.2244 49.0078H52.1977C52.0824 49.4728 51.9586 50.0789 51.8349 50.5453L51.3567 52.2323H53.1258L53.1174 52.2239V52.2225ZM51.0839 53.5576L50.5186 55.5951H48.644L51.0853 47.6448H53.4549L55.9482 55.5951H53.9935L53.3747 53.5576H51.0755H51.0839Z" fill="#A19FA4"/>
<path d="M60.4834 54.2516C60.6423 54.2781 60.8898 54.2865 61.1106 54.2865C62.7461 54.3046 63.8247 53.3997 63.8247 51.5018C63.8247 49.8498 62.8516 48.9811 61.2963 48.9811C60.8983 48.9811 60.6325 49.0161 60.4736 49.051V54.26L60.482 54.2516H60.4834ZM58.6792 47.7606C59.343 47.6559 60.2092 47.593 61.1205 47.593C62.6421 47.593 63.6321 47.8737 64.4013 48.4449C65.2324 49.0594 65.7541 50.0355 65.7541 51.4404C65.7541 52.9598 65.1972 54.0142 64.428 54.6649C63.5885 55.359 62.2975 55.6928 60.7323 55.6928C59.7944 55.6928 59.1236 55.6397 58.6806 55.5783V47.7606H58.6792Z" fill="#A19FA4"/>
<path d="M70.4142 47.6545H68.6016V55.6049H70.4142V47.6545Z" fill="#A19FA4"/>
<path d="M73.6504 55.6049V47.6545H75.7556L77.4178 50.5705C77.8959 51.4056 78.3642 52.3971 78.727 53.2937H78.7537C78.6384 52.2393 78.6117 51.1682 78.6117 49.9644V47.6448H80.2739V55.5951H78.3811L76.6654 52.5298C76.1873 51.6695 75.6656 50.6501 75.2774 49.7186H75.2423C75.2957 50.773 75.3224 51.8971 75.3224 53.1973V55.5867H73.6602L73.6518 55.6049H73.6504Z" fill="#A19FA4"/>
<path d="M87.3923 52.2225L86.8973 50.5355C86.7552 50.0705 86.6146 49.4728 86.4993 49.0078H86.4726C86.3573 49.4728 86.2335 50.0789 86.1098 50.5453L85.6316 52.2323H87.4007L87.3923 52.2239V52.2225ZM85.3588 53.5576L84.7935 55.5951H82.9189L85.3602 47.6448H87.7298L90.2231 55.5951H88.2684L87.6496 53.5576H85.3504H85.3588Z" fill="#A19FA4"/>
<path d="M92.4321 55.4734V47.646H94.2279V50.6499H97.4989V47.646H99.2947V55.4734H97.4989V52.3187H94.2279V55.4734H92.4321Z" fill="#A19FA4"/>
</g>
<defs>
<clipPath id="clip0_549_31443">
<rect width="118.829" height="56" fill="white" transform="translate(0.175781)"/>
</clipPath>
</defs>
</svg>
