<svg width="24" height="24" viewBox="0 0 24 24" fill="none" xmlns="http://www.w3.org/2000/svg">
<path d="M4.70095 23.9987C4.31458 23.9987 4.00077 23.6908 4.00077 23.3102C4.00077 21.9311 4.00013 20.5521 4.00077 19.1737C4.00204 17.0973 5.55963 15.5674 7.67162 15.5649C7.86831 15.5649 8.06564 15.5649 8.28778 15.5649C8.28778 15.2056 8.29415 14.8645 8.28142 14.5239C8.27887 14.4645 8.20631 14.3937 8.14775 14.3524C6.65509 13.282 5.76777 11.8498 5.49152 10.0551C5.44442 9.74772 5.43487 9.43285 5.43232 9.12174C5.42468 8.21595 5.4285 7.31016 5.42978 6.40499C5.43678 3.18621 7.71491 0.571503 10.9485 0.0707208C14.3138 -0.450719 17.6613 1.93301 18.1934 5.2388C18.2577 5.63817 18.2851 6.04568 18.2908 6.45006C18.3042 7.40218 18.3175 8.35554 18.2883 9.30765C18.224 11.3897 17.3246 13.0566 15.632 14.3061C15.4901 14.4113 15.4213 14.5095 15.4322 14.6873C15.4487 14.9671 15.4366 15.2482 15.4366 15.5649C15.6874 15.5649 15.9299 15.5574 16.1724 15.5662C17.6326 15.6181 18.7026 16.2873 19.3729 17.5662C19.6129 18.0238 19.7268 18.5346 19.7262 19.0498C19.7243 20.4701 19.7249 21.8904 19.7255 23.3108C19.7255 23.6908 19.4124 23.9994 19.0254 23.9994L4.70095 23.9987ZM6.86005 7.03661C6.86005 7.76963 6.85178 8.47823 6.86387 9.18684C6.86896 9.48981 6.89697 9.79529 6.95171 10.0933C7.34572 12.2579 9.14646 13.8566 11.4475 14.0964C13.5487 14.3155 15.6594 13.0303 16.4945 11.0554C17.0451 9.75398 16.802 8.39748 16.8745 7.0341H12.5742V6.08136C12.4755 6.12456 12.4048 6.15272 12.3361 6.18653C11.8326 6.43316 11.3329 6.68856 10.8237 6.92456C10.6799 6.99091 10.5086 7.03097 10.3495 7.03222C9.19865 7.04099 8.04845 7.03661 6.86005 7.03661ZM16.8013 5.6244C16.5168 3.16243 14.1464 1.27072 11.5551 1.42033C9.21393 1.55554 6.93007 3.63254 6.94153 5.63066C7.98034 5.63066 9.01915 5.63441 10.058 5.62628C10.1942 5.62502 10.3412 5.58872 10.4634 5.52988C11.5653 4.99529 12.662 4.45194 13.7606 3.91172C13.8345 3.87542 13.9102 3.84224 14.0216 3.79091V5.6244H16.8013ZM5.43614 22.5934C5.52844 22.5934 5.59846 22.5934 5.66911 22.5934C7.01091 22.5934 8.35271 22.5903 9.69451 22.5978C9.86701 22.599 9.94148 22.5483 9.99431 22.3862C10.3164 21.4072 10.648 20.4313 10.9848 19.4573C11.0325 19.3195 11.0153 19.2338 10.909 19.1318C10.4316 18.6735 9.96567 18.2047 9.49082 17.744C9.22093 17.4823 8.98287 17.1267 8.65633 17.0022C8.3177 16.8732 7.88932 16.9646 7.5004 16.9746C6.42339 17.0034 5.48388 17.8498 5.44632 18.9089C5.40304 20.1246 5.43614 21.3427 5.43614 22.5934ZM18.2902 22.5934C18.2902 21.3483 18.315 20.1377 18.2825 18.9289C18.2564 17.9749 17.4945 17.1568 16.5283 17.0166C16.0922 16.9534 15.6422 16.9746 15.1986 16.9765C15.0954 16.9765 14.9681 17.031 14.8937 17.103C14.1967 17.7753 13.5111 18.4595 12.8154 19.1336C12.7091 19.2369 12.6938 19.3227 12.7416 19.4591C13.0783 20.4332 13.4106 21.4091 13.732 22.3881C13.7861 22.5534 13.865 22.5978 14.0344 22.5972C15.2571 22.5903 16.4799 22.5934 17.7027 22.5934C17.8917 22.5934 18.0808 22.5934 18.2914 22.5934H18.2902ZM9.7187 15.1574C9.7187 15.3496 9.73079 15.5061 9.71615 15.6601C9.69515 15.8779 9.76516 16.0363 9.9313 16.1915C10.4093 16.6379 10.8683 17.103 11.3329 17.5624C11.5048 17.7327 11.6722 17.9067 11.8536 18.0914C12.5716 17.3853 13.2622 16.708 13.9497 16.0282C13.9796 15.9981 14.0038 15.9474 14.0044 15.9061C14.0095 15.6657 14.007 15.426 14.007 15.1593C12.5748 15.6319 11.163 15.6363 9.7187 15.1574ZM12.2992 22.5872C12.1547 22.1646 12.021 21.774 11.888 21.3834C11.8702 21.3846 11.8523 21.3853 11.8352 21.3865C11.7015 21.7821 11.5684 22.1778 11.4303 22.5872H12.2992Z" fill="#50A99A"/>
<path d="M9.92885 11.1561C9.93712 11.1479 9.9454 11.1398 9.95367 11.1316C10.1739 10.9157 10.5157 10.8631 10.785 11.0158C11.4998 11.4202 12.2948 11.3839 12.939 11.019C13.2101 10.8656 13.5532 10.9176 13.7741 11.1354C13.783 11.1442 13.7913 11.1523 13.8002 11.1611C14.1191 11.4759 14.058 12.0055 13.6704 12.234C12.6175 12.8556 11.1567 12.8781 10.0644 12.2359C9.67233 12.0055 9.60549 11.4728 9.92885 11.1561Z" fill="#50A99A"/>
<path d="M16.1541 19.7933H14.7225C14.3358 19.7933 14.0224 20.1014 14.0224 20.4816C14.0224 20.8617 14.3358 21.1698 14.7225 21.1698H16.1541C16.5408 21.1698 16.8543 20.8617 16.8543 20.4816C16.8543 20.1014 16.5408 19.7933 16.1541 19.7933Z" fill="#50A99A"/>
</svg>
