<svg width="65" height="64" viewBox="0 0 65 64" fill="none" xmlns="http://www.w3.org/2000/svg">
<g clip-path="url(#clip0_500_12255)">
<path d="M0.166016 12.1527C0.326354 11.399 0.449948 10.6353 0.652041 9.89337C2.30386 3.84554 8.05599 -0.365962 14.1037 0.0251417C20.7043 0.453174 25.9153 5.20852 26.7621 11.6391C27.2181 15.107 26.4231 18.3248 24.636 21.3143C22.139 25.4922 19.6538 29.6785 17.1652 33.8615C17.05 34.0545 16.9431 34.2543 16.761 34.5732C17.0917 34.5732 17.3289 34.5732 17.5644 34.5732C20.6676 34.5866 23.7758 34.5077 26.874 34.637C30.5618 34.7897 33.4613 38.0209 33.3744 41.6785C33.2842 45.4821 30.343 48.5522 26.5968 48.5925C20.9716 48.6512 15.3464 48.6076 9.72117 48.616C7.62341 48.6194 6.15365 49.8313 5.84299 51.7885C5.53067 53.7574 7.09396 55.7381 9.07815 55.8808C9.28525 55.8959 9.49403 55.8942 9.7028 55.8942C18.2241 55.8942 26.7454 55.8942 35.2651 55.8942C35.4722 55.8942 35.6776 55.8942 35.888 55.8942C36.0283 55.5065 36.1419 55.1473 36.2872 54.8032C37.0037 53.1028 38.2063 51.8724 39.9199 51.2077C40.4243 51.0113 40.5378 50.7562 40.5378 50.2543C40.5228 41.3764 40.5262 32.4985 40.5278 23.6206C40.5278 22.4355 41.0589 21.6752 42.0711 21.5258C42.4402 21.4704 42.8678 21.5442 43.2185 21.6836C49.7523 24.2887 56.2794 26.9156 62.8082 29.5325C63.6165 29.8564 64.1343 30.412 64.1627 31.3067C64.1911 32.2047 63.6934 32.7755 62.9167 33.1615C56.8957 36.1594 50.8813 39.1708 44.8553 42.1569C44.421 42.3718 44.2523 42.595 44.259 43.0935C44.2891 45.5006 44.2841 47.9093 44.2624 50.3164C44.2574 50.7746 44.3676 51.0029 44.8219 51.1859C47.5075 52.2669 49.2128 54.9676 48.989 57.7054C48.7351 60.8107 46.7459 63.1556 43.788 63.8388C40.8869 64.5086 37.8088 63.0449 36.4876 60.2971C36.2304 59.7633 35.9365 59.6508 35.4037 59.6508C26.7788 59.6659 18.154 59.6676 9.5291 59.6575C6.07849 59.6542 3.17069 57.4217 2.31722 54.1703C1.07794 49.4469 4.59035 44.8745 9.50071 44.856C15.0224 44.8359 20.5423 44.846 26.064 44.856C27.0193 44.8577 27.8878 44.6613 28.5876 43.9765C29.5547 43.0298 29.8787 41.8833 29.4528 40.5908C29.0302 39.3034 28.1083 38.5614 26.7638 38.3768C26.4966 38.3399 26.2243 38.3415 25.9537 38.3415C21.9536 38.3399 17.9535 38.3164 13.9534 38.355C12.8194 38.3667 12.1012 37.9303 11.5333 36.95C8.57208 31.8321 5.58077 26.7343 2.57443 21.6433C1.35686 19.5854 0.480011 17.4217 0.257876 15.018C0.251195 14.9408 0.197749 14.8669 0.166016 14.7914C0.166016 13.9118 0.166016 13.0323 0.166016 12.1527ZM13.4858 32.7671C16.3752 27.8539 19.2663 23.0381 22.0455 18.1569C23.0459 16.4011 23.2915 14.4053 23.0727 12.3743C22.605 8.05703 19.293 4.56396 15.009 3.88414C10.8018 3.21608 6.55616 5.47541 4.80747 9.39484C3.30263 12.7671 3.6968 16.057 5.50728 19.1943C8.02426 23.5551 10.5897 27.8858 13.1367 32.2299C13.2286 32.386 13.3355 32.5354 13.4874 32.7671H13.4858ZM57.7241 31.5484C53.2029 29.7306 48.7819 27.9546 44.3258 26.1636V38.2308C48.8086 35.9949 53.2146 33.7977 57.7241 31.5484ZM39.5341 57.3546C39.5357 58.9408 40.8118 60.2316 42.3817 60.2383C43.9367 60.2434 45.2461 58.9425 45.2662 57.373C45.2862 55.7784 43.9768 54.4691 42.3684 54.4775C40.7834 54.4842 39.5307 55.7566 39.5341 57.3562V57.3546Z" fill="#387A8A"/>
<path d="M13.4689 19.6174C10.202 19.6409 7.53972 16.9921 7.52301 13.7038C7.50798 10.4038 10.1235 7.74494 13.4038 7.73151C16.684 7.7164 19.3279 10.34 19.358 13.6383C19.388 16.9082 16.7441 19.5922 13.4672 19.6174H13.4689ZM11.2709 13.6568C11.2659 14.8838 12.2246 15.8574 13.4388 15.8557C14.643 15.854 15.6284 14.857 15.6168 13.6518C15.6051 12.4617 14.6514 11.5049 13.4655 11.4932C12.2346 11.4814 11.2759 12.4248 11.2709 13.6551V13.6568Z" fill="#387A8A"/>
</g>
<defs>
<clipPath id="clip0_500_12255">
<rect width="64" height="64" fill="white" transform="translate(0.166016)"/>
</clipPath>
</defs>
</svg>
