<svg width="56" height="56" viewBox="0 0 56 56" fill="none" xmlns="http://www.w3.org/2000/svg">
<path d="M5.6001 49.0919C5.6001 48.3671 6.18696 47.7791 6.91176 47.7791H8.25616V38.684C8.25616 37.8563 8.92719 37.1841 9.75604 37.1841H10.8678C10.8678 36.2021 10.8386 35.2563 10.8725 34.3129C11.0724 28.8582 13.3263 24.4556 17.7231 21.2056C19.8554 19.6298 22.0602 18.1521 24.2323 16.6312C24.611 16.3658 24.9922 16.1028 25.3791 15.8339C27.944 17.6377 30.4925 19.4135 33.0223 21.2126C34.4696 22.2414 35.7263 23.5133 36.7632 24.9559C36.8883 25.1301 37.0146 25.3031 37.1397 25.4773L37.2215 25.4504V24.9851C37.2215 22.0988 37.197 19.2112 37.2273 16.3249C37.2706 12.1409 38.8207 8.64779 42.0847 5.96484C42.2156 5.85729 42.3232 5.72285 42.4413 5.6001H42.5289C42.5979 5.67141 42.6587 5.75207 42.7359 5.81286C46.2021 8.59986 47.7814 12.2543 47.7768 16.6604C47.7663 26.8229 47.7733 36.9853 47.7733 47.1478C47.7733 47.3337 47.7733 47.5196 47.7733 47.7581H49.0604C49.7852 47.7581 50.372 48.3449 50.372 49.0697V49.0791C50.372 49.8039 49.7852 50.3907 49.0604 50.3907C42.5161 50.3907 13.4572 50.3966 6.91176 50.4001C6.18696 50.4001 5.6001 49.8132 5.6001 49.0884V49.0919ZM36.9409 31.9246C36.9257 31.7948 36.9246 31.706 36.9059 31.623C36.1927 28.5063 34.6706 25.8514 32.1455 23.8839C30.067 22.2648 27.854 20.8187 25.7099 19.2837C25.4574 19.1025 25.2891 19.0967 25.0331 19.2791C23.1907 20.586 21.3366 21.8755 19.486 23.1708C17.6494 24.4556 16.1939 26.0794 15.1406 28.0585C14.4953 29.2708 14.0266 30.5463 13.7787 31.9246H36.9409ZM10.8888 47.7347C11.0537 47.7429 11.1951 47.7569 11.3366 47.7569C16.1472 47.7569 20.9578 47.7616 25.7672 47.7464C25.9823 47.7464 26.2489 47.6283 26.4032 47.4763C27.9826 45.9227 29.5479 44.3538 31.1062 42.7791C31.3167 42.5664 31.5271 42.4728 31.8299 42.474C34.3223 42.4845 36.8147 42.4798 39.3082 42.4798C39.4777 42.4798 39.6484 42.4798 39.8285 42.4798V39.8682H10.8888V47.7347ZM45.116 47.7347V21.4289H39.8986V37.2075H41.008C41.8357 37.2075 42.5079 37.8785 42.5079 38.7073V47.7347H45.116ZM13.525 37.1771H37.1864V34.5982H13.525V37.1771ZM39.3293 45.1242C37.2028 45.1242 35.0763 45.1301 32.9498 45.1184C32.6365 45.1172 32.405 45.1908 32.1829 45.4258C31.54 46.1004 30.8701 46.7492 30.2119 47.4097C30.1254 47.4962 30.0506 47.5944 29.929 47.7347H39.8355V45.1242H39.3293ZM39.8834 18.7273H45.1067V16.1542H39.8834V18.7273ZM40.2224 13.4596H44.7735C44.3421 11.8381 43.6056 10.4271 42.4962 9.1762C41.3891 10.4353 40.6468 11.8416 40.2224 13.4596Z" fill="white"/>
<path d="M16.1156 45.1032H13.5402V42.5114H16.1156V45.1032Z" fill="white"/>
<path d="M18.822 42.5044H21.3915V45.0798H18.822V42.5044Z" fill="white"/>
</svg>
