<svg width="387" height="393" viewBox="0 0 387 393" fill="none" xmlns="http://www.w3.org/2000/svg">
<g filter="url(#filter0_bd_500_12262)">
<path d="M227.72 32.1547C229.964 34.0366 231.617 37.2926 233.366 39.6533C234.813 41.6095 236.283 43.5862 238.143 45.1566C248.667 54.0487 266.461 45.5857 270.942 62.3411C272.16 66.8978 271.456 71.6734 272.662 76.1692C273.631 79.7743 275.444 83.1594 277.971 85.9159C282.431 90.7799 291.233 94.232 293.448 100.811C294.357 103.515 294.919 105.393 294.089 108.113C293.138 111.232 291.994 114.293 290.69 117.282C289.261 120.546 287.421 123.895 287.544 127.518C287.676 131.402 289.356 135.176 290.959 138.642C293.863 144.91 296.323 150.202 294.081 157.011C293.345 159.246 292.165 161.34 290.625 163.115C287.94 166.208 284.29 168.259 280.898 170.552C275.577 174.14 272.224 177.954 272.172 184.567C272.137 189.234 272.83 195.319 270.248 199.426C267.878 203.194 263.475 205.208 259.129 206.152C254.5 207.156 249.689 207.148 245.088 208.289C234.532 210.899 232.032 222.165 224.257 228.169C218.45 232.656 211.545 229.187 205.611 226.791C201.898 225.293 198.136 223.839 194.161 223.529C187.367 223.003 181.147 227.553 174.912 229.587C171.837 230.591 168.32 231.044 165.189 230.025C162.059 229.007 160.425 226.353 158.532 223.939C154.564 218.905 150.783 213.093 144.815 210.235C140.728 208.276 136.059 208.061 131.564 207.439C127.068 206.818 122.339 205.594 119.309 202.213C114.98 197.399 115.436 190.06 114.733 184.037C114.025 177.926 111.078 173.324 106.274 169.533C102.401 166.48 98.2321 163.673 95.2481 159.585C91.7434 154.783 91.0368 150.492 93.6764 144.991C95.1542 141.919 97.1769 139.123 98.5124 135.991C100.111 132.254 100.263 128.41 98.4032 124.746C95.1971 118.426 91.1565 111.811 92.2092 104.445C93.0651 98.4587 96.7298 93.7498 101.627 90.4288C105.917 87.5206 111.11 85.0558 113.492 80.1686C115.814 75.395 114.911 69.4192 115.04 64.2665C115.189 58.4213 119.761 54.7829 124.975 52.9135C130.8 50.8269 137.096 51.1469 142.985 49.2787C146.673 48.1085 149.781 45.639 152.269 42.7157C155.882 38.4678 158.606 33.3773 163.109 29.9435C167.957 26.2423 174.152 28.2261 179.319 30.3443C184.056 32.29 188.882 34.6334 193.998 34.4144C199.864 34.1658 204.859 30.6913 210.182 28.6282C216.94 26.0145 222.218 27.558 227.72 32.1547Z" fill="white" fill-opacity="0.3"/>
<path d="M271.696 76.4288L271.696 76.4282C271.068 74.0847 270.937 71.6845 270.812 69.3966L270.808 69.3325C270.681 66.9906 270.554 64.7613 269.976 62.5995C268.909 58.6104 267.082 56.2109 264.838 54.6605C262.56 53.086 259.763 52.3242 256.639 51.7856C255.497 51.5887 254.285 51.4193 253.046 51.2459C250.996 50.9593 248.871 50.662 246.86 50.2127C243.56 49.4756 240.3 48.2882 237.498 45.9206C235.534 44.2627 233.998 42.1895 232.562 40.248M271.696 76.4288L233.366 39.6533M271.696 76.4288C272.705 80.1818 274.593 83.7114 277.234 86.5917C278.414 87.878 279.86 89.0504 281.361 90.1713C282.057 90.6911 282.774 91.2065 283.487 91.7191L283.66 91.8435C284.433 92.3993 285.2 92.9529 285.948 93.5182C288.973 95.8042 291.498 98.1544 292.501 101.131C293.404 103.818 293.863 105.428 293.133 107.821C292.194 110.901 291.064 113.926 289.773 116.882C289.569 117.348 289.351 117.828 289.128 118.318C288.599 119.481 288.044 120.701 287.596 121.921C286.95 123.682 286.477 125.561 286.545 127.552C286.685 131.669 288.46 135.621 290.052 139.062L290.052 139.063M271.696 76.4288L290.052 139.063M232.562 40.248L233.366 39.6533M232.562 40.248C232.562 40.2482 232.562 40.2484 232.562 40.2486L233.366 39.6533M232.562 40.248C231.999 39.4882 231.426 38.6085 230.861 37.7406C230.537 37.2436 230.216 36.7505 229.901 36.286C228.999 34.9566 228.088 33.7691 227.078 32.9216M233.366 39.6533C232.817 38.9131 232.278 38.0848 231.728 37.2385C230.522 35.3858 229.26 33.4465 227.72 32.1547M227.078 32.9216C227.078 32.9218 227.079 32.922 227.079 32.9222L227.72 32.1547M227.078 32.9216C224.401 30.6854 221.849 29.2512 219.205 28.6637C216.576 28.0795 213.77 28.3131 210.544 29.5606M227.078 32.9216C227.078 32.9214 227.078 32.9212 227.077 32.921L227.72 32.1547M227.72 32.1547L210.544 29.5606M210.544 29.5606L210.182 28.6282L210.543 29.5609C210.543 29.5608 210.543 29.5607 210.544 29.5606ZM210.544 29.5606C209.249 30.0625 207.966 30.6533 206.661 31.2715C206.398 31.3957 206.135 31.5213 205.87 31.6474C204.827 32.1443 203.765 32.65 202.694 33.118C200.005 34.2937 197.157 35.2813 194.041 35.4135C189.29 35.6169 184.782 33.7211 180.61 31.9667C180.047 31.7299 179.49 31.4957 178.939 31.2695L210.544 29.5606ZM290.052 139.063C292.976 145.374 295.233 150.314 293.131 156.699L294.081 157.011M290.052 139.063L294.081 157.011M294.081 157.011L293.131 156.699C292.436 158.81 291.322 160.787 289.87 162.459L290.625 163.115L289.87 162.459C287.815 164.826 285.187 166.542 282.434 168.339C281.741 168.791 281.04 169.249 280.338 169.723C277.632 171.549 275.344 173.484 273.731 175.864C272.104 178.267 271.199 181.068 271.172 184.559L271.172 184.559L294.081 157.011ZM223.646 227.377L223.646 227.377C226.535 225.146 228.643 222.186 230.836 219.107C231.486 218.196 232.143 217.274 232.829 216.357C235.783 212.414 239.224 208.709 244.847 207.318C244.848 207.318 244.848 207.318 244.848 207.318L245.088 208.289L223.646 227.377ZM223.646 227.377C221.038 229.393 218.18 229.65 215.168 229.079C212.61 228.593 210.043 227.534 207.503 226.485C206.996 226.276 206.49 226.068 205.986 225.864L205.986 225.864M223.646 227.377L205.986 225.864M205.986 225.864C202.285 224.37 198.388 222.855 194.239 222.532L194.238 222.532M205.986 225.864L194.238 222.532M194.238 222.532C190.6 222.25 187.167 223.332 183.942 224.675C182.786 225.157 181.632 225.683 180.501 226.199C180.058 226.401 179.619 226.601 179.184 226.796C177.625 227.498 176.107 228.145 174.601 228.636L174.601 228.636M194.238 222.532L174.601 228.636M174.601 228.636C171.63 229.606 168.348 230.001 165.499 229.074C163.123 228.301 161.743 226.492 160.133 224.379C159.87 224.034 159.6 223.681 159.319 223.322L159.318 223.32L174.601 228.636ZM120.053 201.545L120.054 201.546C122.827 204.64 127.233 205.831 131.701 206.449C132.518 206.562 133.354 206.662 134.201 206.763C137.881 207.203 141.776 207.669 145.247 209.333C145.247 209.333 145.247 209.333 145.247 209.333L144.815 210.235L120.053 201.545ZM120.053 201.545C118.074 199.344 117.15 196.525 116.649 193.419C116.398 191.868 116.256 190.271 116.133 188.664C116.109 188.359 116.087 188.052 116.064 187.746C115.967 186.454 115.871 185.159 115.726 183.922C114.983 177.507 111.872 172.676 106.893 168.747L106.893 168.747M120.053 201.545L106.893 168.747M106.893 168.747C106.183 168.188 105.471 167.642 104.765 167.1M106.893 168.747L104.765 167.1M114.391 80.6061L114.391 80.6067C113.101 83.2522 111.068 85.2049 108.873 86.8424C107.775 87.6613 106.623 88.4113 105.492 89.13C105.237 89.2924 104.983 89.4528 104.731 89.612C103.858 90.1636 103.008 90.7009 102.188 91.2565C97.4586 94.4639 94.0052 98.949 93.1992 104.587C92.7052 108.043 93.399 111.359 94.6439 114.633C95.6178 117.194 96.9015 119.667 98.1894 122.148C98.56 122.861 98.9309 123.576 99.2949 124.293C101.312 128.266 101.125 132.425 99.4322 136.384L114.391 80.6061ZM114.391 80.6061C115.644 78.0311 116.006 75.1771 116.088 72.3892C116.129 70.9923 116.1 69.5883 116.07 68.2315L116.067 68.0867C116.038 66.7727 116.01 65.507 116.04 64.292C116.173 59.0657 120.248 55.6709 125.312 53.855C128.113 52.8516 131.045 52.4205 134.091 52.005C134.245 51.984 134.399 51.9631 134.554 51.9421C137.426 51.5519 140.4 51.1479 143.287 50.2319L143.288 50.2319M114.391 80.6061L143.288 50.2319M143.288 50.2319C147.207 48.9882 150.463 46.3805 153.031 43.3639L153.031 43.3636M143.288 50.2319L153.031 43.3636M153.031 43.3636C154.264 41.9141 155.413 40.3445 156.536 38.8096C157.078 38.0689 157.615 37.3363 158.152 36.6291C159.83 34.4185 161.572 32.373 163.715 30.7386L163.716 30.7383M153.031 43.3636L163.716 30.7383M163.716 30.7383C165.881 29.0855 168.363 28.6765 170.988 28.956M163.716 30.7383L170.988 28.956M104.765 167.1C101.537 164.624 98.4181 162.231 96.0559 158.996M104.765 167.1L96.0559 158.996M96.0559 158.996C94.3661 156.68 93.4087 154.567 93.1509 152.43C92.8943 150.303 93.319 148.048 94.5776 145.424L96.0559 158.996ZM96.7246 141.51C95.9588 142.823 95.216 144.098 94.578 145.423L96.7246 141.51ZM96.7246 141.51C96.8202 141.346 96.9161 141.182 97.0122 141.016M96.7246 141.51L97.0122 141.016M97.0122 141.016C97.8697 139.541 98.7376 138.012 99.432 136.384L97.0122 141.016ZM170.988 28.956C173.639 29.2381 176.368 30.2153 178.939 31.2693L170.988 28.956Z" stroke="white" stroke-opacity="0.8" stroke-width="2"/>
<circle cx="194.092" cy="129.499" r="73.1615" transform="rotate(15 194.092 129.499)" fill="url(#paint0_linear_500_12262)" fill-opacity="0.2"/>
<path d="M148.104 148.215C148.416 147.051 149.612 146.359 150.776 146.671L152.935 147.249L156.849 132.642C157.206 131.312 158.573 130.521 159.904 130.878L161.689 131.356C162.112 129.779 162.472 128.248 162.933 126.747C165.601 118.072 171.116 111.971 179.576 108.644C183.679 107.03 187.856 105.606 191.999 104.098C192.722 103.835 193.447 103.576 194.184 103.311C197.527 107.312 200.856 111.261 204.145 115.239C206.027 117.514 207.498 120.098 208.543 122.861C208.669 123.195 208.797 123.527 208.923 123.86L209.066 123.852L209.266 123.105C210.508 118.469 211.712 113.821 213.003 109.198C214.873 102.497 218.866 97.5539 225.262 94.6494C225.519 94.533 225.75 94.3634 225.992 94.2171L226.133 94.2548C226.213 94.399 226.276 94.5547 226.374 94.6856C230.741 100.653 231.705 107.203 229.802 114.277C225.411 130.595 221.049 146.92 216.676 163.242C216.596 163.54 216.516 163.839 216.413 164.222L218.48 164.776C219.644 165.088 220.334 166.283 220.022 167.447L220.018 167.462C219.706 168.626 218.511 169.316 217.347 169.004C206.836 166.188 160.162 153.692 149.648 150.88C148.484 150.568 147.794 149.373 148.106 148.209L148.104 148.215ZM205.829 134.13C205.861 133.915 205.897 133.772 205.903 133.63C206.099 128.318 204.796 123.399 201.587 119.152C198.946 115.657 196.014 112.382 193.231 108.994C192.903 108.594 192.636 108.512 192.146 108.695C188.624 110.001 185.092 111.275 181.562 112.559C178.059 113.832 175.023 115.813 172.479 118.539C170.921 120.208 169.619 122.055 168.628 124.162L205.829 134.13ZM157.183 148.311C157.444 148.395 157.665 148.478 157.892 148.539C165.619 150.61 173.343 152.687 181.074 154.733C181.419 154.825 181.898 154.75 182.212 154.573C185.417 152.757 188.606 150.911 191.787 149.052C192.216 148.801 192.594 148.742 193.08 148.874C197.079 149.963 201.084 151.028 205.089 152.101C205.361 152.174 205.635 152.248 205.924 152.325L207.048 148.131L160.568 135.676L157.183 148.311ZM212.155 163.041L223.476 120.791L215.096 118.546L208.306 143.888L210.088 144.365C211.417 144.721 212.208 146.088 211.851 147.419L207.966 161.918L212.155 163.041ZM165.96 132.489L203.963 142.672L205.073 138.53L167.07 128.347L165.96 132.489ZM203.985 156.358C200.569 155.443 197.151 154.537 193.741 153.603C193.238 153.466 192.835 153.485 192.377 153.767C191.054 154.573 189.699 155.327 188.358 156.105C188.181 156.206 188.019 156.332 187.763 156.505L203.674 160.768L204.798 156.576L203.985 156.358ZM216.235 114.2L224.624 116.448L225.731 112.315L217.342 110.067L216.235 114.2ZM219.046 105.885L226.356 107.844C226.36 105.054 225.785 102.471 224.541 99.9843C222.221 101.53 220.424 103.469 219.046 105.885Z" fill="#50A99A"/>
<path d="M166.71 146.334L162.574 145.225L163.689 141.063L167.825 142.171L166.71 146.334Z" fill="#50A99A"/>
<path d="M172.175 143.325L176.302 144.43L175.194 148.567L171.067 147.461L172.175 143.325Z" fill="#50A99A"/>
</g>
<defs>
<filter id="filter0_bd_500_12262" x="0.307861" y="-3.94764" width="386.375" height="396.593" filterUnits="userSpaceOnUse" color-interpolation-filters="sRGB">
<feFlood flood-opacity="0" result="BackgroundImageFix"/>
<feGaussianBlur in="BackgroundImageFix" stdDeviation="15.6533"/>
<feComposite in2="SourceAlpha" operator="in" result="effect1_backgroundBlur_500_12262"/>
<feColorMatrix in="SourceAlpha" type="matrix" values="0 0 0 0 0 0 0 0 0 0 0 0 0 0 0 0 0 0 127 0" result="hardAlpha"/>
<feOffset dy="70.3144"/>
<feGaussianBlur stdDeviation="45.8656"/>
<feComposite in2="hardAlpha" operator="out"/>
<feColorMatrix type="matrix" values="0 0 0 0 0.192157 0 0 0 0 0.196078 0 0 0 0 0.388235 0 0 0 0.2 0"/>
<feBlend mode="normal" in2="effect1_backgroundBlur_500_12262" result="effect2_dropShadow_500_12262"/>
<feBlend mode="normal" in="SourceGraphic" in2="effect2_dropShadow_500_12262" result="shape"/>
</filter>
<linearGradient id="paint0_linear_500_12262" x1="194.092" y1="56.3377" x2="205.553" y2="243.277" gradientUnits="userSpaceOnUse">
<stop stop-color="#50A99A"/>
<stop offset="1" stop-color="#50A99A" stop-opacity="0.2"/>
</linearGradient>
</defs>
</svg>
