<svg width="234" height="234" viewBox="0 0 234 234" fill="none" xmlns="http://www.w3.org/2000/svg">
<path d="M109.148 7.19265C110.833 -1.42895 123.167 -1.42892 124.852 7.19268L131.189 39.6333C137.431 71.5862 162.414 96.5692 194.367 102.811L226.807 109.148C235.429 110.833 235.429 123.167 226.807 124.852L194.367 131.189C162.414 137.431 137.431 162.414 131.189 194.367L124.852 226.807C123.167 235.429 110.833 235.429 109.148 226.807L102.811 194.367C96.5692 162.414 71.5862 137.431 39.6333 131.189L7.19265 124.852C-1.42895 123.167 -1.42892 110.833 7.19268 109.148L39.6333 102.811C71.5862 96.5692 96.5692 71.5862 102.811 39.6333L109.148 7.19265Z" fill="#ECCD76"/>
</svg>
