<svg width="64" height="55" viewBox="0 0 64 55" fill="none" xmlns="http://www.w3.org/2000/svg">
<path d="M50.3012 43.4904V50.2826C50.5557 50.2826 50.8048 50.2826 51.0539 50.2826C54.6009 50.2826 58.1478 50.2735 61.6948 50.288C62.902 50.2935 63.8601 51.1734 63.9855 52.3224C64.1073 53.4459 63.3728 54.4986 62.2493 54.7785C62.022 54.8349 61.7784 54.8495 61.5421 54.8495C41.8565 54.8531 22.1709 54.8495 2.48526 54.8549C1.45807 54.8549 0.674503 54.4459 0.232722 53.5187C-0.241783 52.5278 0.0254668 51.5134 0.887212 50.8516C1.01266 50.7553 2.29618 49.9499 2.29618 50.2535C2.29618 49.9771 2.29618 49.699 2.29618 49.4226C2.29618 37.6636 2.29618 25.9046 2.29618 14.1456C2.29618 8.49337 6.20494 4.55553 11.8481 4.59371C13.3116 4.6028 14.8315 4.60461 16.2277 4.97913C19.4529 5.84451 21.5255 8.0316 22.4963 11.2295C22.6199 11.6367 22.8126 11.8404 23.1962 12.0113C25.8833 13.2148 27.3032 15.3146 27.4195 18.2507C27.4613 19.3161 27.4868 20.4069 27.3086 21.4505C26.9432 23.6103 25.1161 25.0992 22.9363 25.1338C21.3655 25.1592 19.7947 25.1611 18.2239 25.1338C15.726 25.0902 13.7552 23.1158 13.7316 20.6124C13.7207 19.4252 13.6934 18.2216 13.8697 17.0545C14.1897 14.9256 15.4114 13.3621 17.2676 12.2876C17.4694 12.1712 17.6785 12.0622 17.9312 11.924C17.2204 10.3678 16.0459 9.4133 14.4043 9.21513C13.2098 9.07151 11.9663 9.06242 10.7736 9.21513C8.41203 9.51692 6.86852 11.444 6.86671 13.9129C6.86125 24.3866 6.86489 34.8602 6.86489 45.3339C6.86489 46.9501 6.86489 48.5645 6.86489 50.2298H13.6807V46.0211C12.9844 45.5066 12.3044 45.1303 11.8063 44.5885C11.5281 44.2867 11.4536 43.7049 11.4609 43.2523C11.4827 42.1233 12.2808 41.3888 13.7207 41.0906C13.7207 39.1817 13.7988 37.2546 13.7007 35.3366C13.5752 32.8622 14.5515 31.9278 17.0767 31.9678C22.6926 32.0587 28.3122 31.995 33.9299 31.9968C35.6752 31.9968 36.5696 32.8877 36.5715 34.6239C36.5751 36.7637 36.5715 38.9053 36.5715 41.0343C38.1859 41.5342 38.8785 42.2832 38.8531 43.4722C38.8276 44.643 38.0841 45.4066 36.5969 45.7666V50.2262H45.6689V43.4868C44.8671 43.4195 44.089 43.3759 43.3163 43.285C41.8274 43.1104 40.9384 41.996 41.1329 40.5816C41.3111 39.2871 42.5001 38.4818 43.9181 38.6817C44.4799 38.7617 45.0453 38.8181 45.7125 38.8963C45.7125 37.6655 45.6052 36.4946 45.738 35.3529C45.9379 33.6203 45.4543 32.2932 44.0381 31.2315C43.2654 30.6515 42.6364 29.8788 41.9492 29.1844C40.9238 28.1481 40.8656 26.7627 41.8019 25.8192C42.74 24.872 44.1399 24.9174 45.1653 25.9337C45.2998 26.0664 45.4053 26.2301 45.5234 26.3791C45.5871 26.361 45.6489 26.3428 45.7125 26.3246C45.7125 25.8701 45.718 25.4174 45.7125 24.9629C45.698 23.7994 45.9852 22.5104 45.5725 21.5105C45.1689 20.5342 44.049 19.8542 43.2418 19.047C42.8037 18.6089 42.3582 18.1798 41.9256 17.738C40.9147 16.7072 40.8747 15.3055 41.8256 14.3711C42.7582 13.4548 44.1399 13.4966 45.138 14.4838C45.2853 14.6292 45.3762 14.8328 45.4925 15.0092C45.5671 14.9674 45.6416 14.9274 45.7161 14.8856C45.7161 13.7347 45.6943 12.5839 45.7216 11.4331C45.7598 9.76418 47.3905 8.677 48.8813 9.3333C49.7903 9.73327 50.2685 10.4678 50.2812 11.4713C50.2939 12.6039 50.2849 13.7384 50.2849 15.0219C50.5903 14.731 50.7848 14.5383 50.9866 14.3529C51.9156 13.4984 53.2628 13.4966 54.15 14.3474C55.059 15.2183 55.1299 16.6218 54.2391 17.5544C53.0901 18.7598 51.872 19.8997 50.7212 21.105C50.4903 21.3468 50.3158 21.745 50.3049 22.0759C50.2594 23.4776 50.2849 24.8793 50.2849 26.4555C50.5757 26.1755 50.7648 25.9883 50.9593 25.8065C51.9083 24.9193 53.2773 24.9174 54.1736 25.7992C55.0717 26.6827 55.1172 28.0717 54.2172 29.008C53.0792 30.1915 51.8793 31.3151 50.7466 32.5041C50.5012 32.7604 50.3139 33.184 50.3049 33.5349C50.2612 35.2893 50.2849 37.0437 50.2849 38.8599C53.241 38.7708 55.6044 37.6455 57.417 35.4129C58.7696 33.7476 59.4259 31.8169 59.4259 29.6698C59.4277 24.3611 59.4404 19.0525 59.4223 13.7457C59.4059 8.62427 55.379 4.59734 50.2576 4.58462C48.2614 4.57916 46.2434 4.4919 44.2708 4.73551C39.9475 5.27001 36.6242 9.13696 36.5824 13.513C36.546 17.3454 36.5824 21.1778 36.5678 25.0102C36.5606 26.8791 34.7643 28.0063 33.2027 27.1391C32.4336 26.7118 32.01 26.0446 32.0082 25.1629C32.0009 21.1159 31.9191 17.0672 32.0337 13.0239C32.2318 6.12449 38.0841 0.257709 44.9908 0.048636C47.6687 -0.0331752 50.3939 -0.0549916 53.0301 0.339521C58.5878 1.174 63.2419 6.28447 63.8564 11.8658C63.9419 12.6439 63.9891 13.4311 63.991 14.2147C64.0019 19.3088 64.0019 24.4029 63.9964 29.4971C63.9873 36.3801 59.4386 41.8996 52.6919 43.2014C51.9283 43.3486 51.143 43.3904 50.303 43.4904H50.3012ZM31.9428 41.127V36.6183H18.3457V41.127H31.9428ZM18.3239 50.2317H31.9464V45.7466H18.3239V50.2317ZM18.3112 20.5324H22.8472C22.8472 19.6652 22.9017 18.8325 22.8344 18.0108C22.7417 16.8836 21.7273 16.0164 20.6019 16.0036C19.4675 15.9909 18.4366 16.8236 18.3276 17.9562C18.2457 18.798 18.3112 19.6524 18.3112 20.5324Z" fill="#D3C1BD"/>
</svg>
